<?xml version="1.0" encoding="iso-8859-1"?><!-- Generator: Adobe Illustrator 18.0.0, SVG Export Plug-In . SVG Version: 6.00 Build 0)  --><!DOCTYPE svg PUBLIC
    "-//W3C//DTD SVG 1.1//EN" "http://www.w3.org/Graphics/SVG/1.1/DTD/svg11.dtd">
<svg style="enable-background:new 0 0 494.665 494.665;" id="Capa_1" version="1.1"  viewBox="0 0 494.665 494.665" x="0px"
	 xmlns="http://www.w3.org/2000/svg" y="0px" xml:space="preserve">
<g>
	<path d="M419.504,107.181c-35.439-45.021-83.754-68.817-139.723-68.817c-16.623,0-34.1,2.115-51.945,6.287
		C146.02,63.777,90.602,93.349,58.413,135.059c-27.638,35.812-38.668,80.54-34.712,140.762
		c3.255,49.559,27.732,95.375,68.923,129.009c40.818,33.331,94.278,51.686,150.532,51.686c5.667,0,11.423-0.189,17.109-0.563
		c59.659-3.92,114.448-27.8,154.274-67.241c39.987-39.601,60.122-90.133,56.696-142.288
		C467.889,195.446,449.033,144.693,419.504,107.181z M259.709,447.471c-5.501,0.361-11.07,0.545-16.552,0.545
		c-51.583,0-99.065-16.122-135.904-42.977h10.883c2.347,0,4.25-1.902,4.25-4.25c0-2.348-1.903-4.25-4.25-4.25h-21.76
		c-36.353-30.439-60.216-72.121-63.997-118.834h31.758c2.347,0,4.25-1.902,4.25-4.25c0-2.348-1.903-4.25-4.25-4.25H31.829
		c-3.478-68.127,10.573-140.226,111.648-187.5h79.992c2.347,0,4.25-1.902,4.25-4.25c0-2.348-1.903-4.25-4.25-4.25h-60.169
		c19.327-7.599,41.36-14.407,66.469-20.277c17.212-4.023,34.038-6.064,50.011-6.064c124.602,0,177.691,119.677,182.975,200.117
		C469.504,349.734,378.418,439.673,259.709,447.471z"/>
	<path d="M494.252,246.24c-3.692-56.216-24.483-112.18-57.042-153.541c-39.053-49.612-92.293-75.835-153.967-75.835
		c-18.325,0-37.594,2.332-57.271,6.932C135.716,44.894,74.591,77.503,39.106,123.484C8.651,162.946-3.502,212.251,0.86,278.648
		c3.587,54.61,30.563,105.1,75.96,142.169c45.003,36.747,103.947,56.984,165.975,56.984c6.249,0,12.596-0.209,18.866-0.62
		c65.784-4.322,126.194-30.65,170.104-74.136C475.835,359.4,498.027,303.713,494.252,246.24z M261.103,468.699
		c-6.085,0.4-12.245,0.602-18.309,0.602c-123.866,0-226.411-83.989-233.454-191.21C3.106,183.16,24.197,79.693,227.907,32.073
		c19.043-4.452,37.661-6.709,55.336-6.709c123.412,0,195.3,111.395,202.527,221.433C493.241,360.525,392.455,460.07,261.103,468.699
		z"/>
	<path d="M433.343,244.655c-2.342,0.154-4.116,2.178-3.962,4.52c5.7,86.775-71.268,162.733-171.575,169.322
		c-2.342,0.154-4.116,2.178-3.962,4.52c0.147,2.248,2.016,3.972,4.236,3.972c0.094,0,0.188-0.003,0.283-0.009
		c104.983-6.898,185.506-86.909,179.499-178.361C437.708,246.274,435.683,244.507,433.343,244.655z"/>
	<path d="M142.803,169.706c14.474,0,26.25-11.775,26.25-26.25c0-14.475-11.776-26.25-26.25-26.25s-26.25,11.775-26.25,26.25
		C116.553,157.93,128.329,169.706,142.803,169.706z M142.803,125.706c9.788,0,17.75,7.963,17.75,17.75
		c0,9.787-7.962,17.75-17.75,17.75s-17.75-7.963-17.75-17.75C125.053,133.669,133.015,125.706,142.803,125.706z"/>
	<path d="M154.386,248.79c0-10.063-8.187-18.25-18.25-18.25c-10.063,0-18.25,8.187-18.25,18.25c0,10.064,8.187,18.25,18.25,18.25
		C146.199,267.04,154.386,258.853,154.386,248.79z M136.136,258.54c-5.376,0-9.75-4.374-9.75-9.75c0-5.376,4.374-9.75,9.75-9.75
		c5.376,0,9.75,4.374,9.75,9.75C145.886,254.166,141.512,258.54,136.136,258.54z"/>
	<path d="M307.719,184.123c0-11.166-9.084-20.25-20.25-20.25c-11.166,0-20.25,9.084-20.25,20.25s9.084,20.25,20.25,20.25
		C298.635,204.373,307.719,195.289,307.719,184.123z M275.719,184.123c0-6.479,5.271-11.75,11.75-11.75s11.75,5.271,11.75,11.75
		s-5.271,11.75-11.75,11.75S275.719,190.601,275.719,184.123z"/>
	<path d="M288.136,121.04c14.474,0,26.25-11.775,26.25-26.25s-11.776-26.25-26.25-26.25c-14.474,0-26.25,11.775-26.25,26.25
		S273.662,121.04,288.136,121.04z M288.136,77.04c9.788,0,17.75,7.963,17.75,17.75s-7.962,17.75-17.75,17.75
		s-17.75-7.963-17.75-17.75S278.348,77.04,288.136,77.04z"/>
	<path d="M228.803,318.54c-9.695,0-17.583,7.888-17.583,17.583c0,9.695,7.888,17.583,17.583,17.583s17.583-7.888,17.583-17.583
		C246.386,326.427,238.498,318.54,228.803,318.54z M228.803,345.206c-5.008,0-9.083-4.074-9.083-9.083
		c0-5.009,4.075-9.083,9.083-9.083s9.083,4.074,9.083,9.083C237.886,341.131,233.811,345.206,228.803,345.206z"/>
	<path d="M160.136,370.54c-9.695,0-17.583,7.888-17.583,17.583c0,9.695,7.888,17.583,17.583,17.583
		c9.695,0,17.583-7.888,17.583-17.583C177.719,378.427,169.831,370.54,160.136,370.54z M160.136,397.206
		c-5.008,0-9.083-4.074-9.083-9.083c0-5.009,4.075-9.083,9.083-9.083c5.008,0,9.083,4.074,9.083,9.083
		C169.219,393.131,165.144,397.206,160.136,397.206z"/>
	<path d="M231.719,240.123c0-10.798-8.785-19.583-19.583-19.583c-10.798,0-19.583,8.785-19.583,19.583
		c0,10.798,8.785,19.583,19.583,19.583C222.934,259.706,231.719,250.921,231.719,240.123z M201.053,240.123
		c0-6.111,4.972-11.083,11.083-11.083c6.111,0,11.083,4.972,11.083,11.083s-4.972,11.083-11.083,11.083
		C206.024,251.206,201.053,246.234,201.053,240.123z"/>
	<path d="M80.136,212.373c6.755,0,12.25-5.495,12.25-12.25s-5.495-12.25-12.25-12.25s-12.25,5.495-12.25,12.25
		S73.381,212.373,80.136,212.373z M80.136,196.373c2.068,0,3.75,1.683,3.75,3.75s-1.682,3.75-3.75,3.75s-3.75-1.683-3.75-3.75
		S78.068,196.373,80.136,196.373z"/>
	<path d="M83.469,293.873c-10.063,0-18.25,8.186-18.25,18.25s8.187,18.25,18.25,18.25s18.25-8.186,18.25-18.25
		S93.532,293.873,83.469,293.873z M83.469,321.873c-5.376,0-9.75-4.374-9.75-9.75s4.374-9.75,9.75-9.75s9.75,4.374,9.75,9.75
		S88.845,321.873,83.469,321.873z"/>
	<path d="M326.136,195.706h31.475c2.008,10.982,11.64,19.333,23.192,19.333c13.004,0,23.583-10.579,23.583-23.583
		c0-13.004-10.579-23.583-23.583-23.583c-11.552,0-21.184,8.352-23.192,19.333h-31.475c-2.347,0-4.25,1.902-4.25,4.25
		C321.886,193.803,323.788,195.706,326.136,195.706z M380.803,176.373c8.317,0,15.083,6.767,15.083,15.083
		c0,8.316-6.766,15.083-15.083,15.083s-15.083-6.767-15.083-15.083C365.72,183.139,372.486,176.373,380.803,176.373z"/>
	<path d="M282.803,275.706h12.312c1.893,7.274,8.497,12.667,16.354,12.667c9.328,0,16.917-7.589,16.917-16.917
		c0-9.328-7.589-16.917-16.917-16.917c-7.857,0-14.462,5.393-16.354,12.667h-12.312c-2.347,0-4.25,1.902-4.25,4.25
		C278.553,273.803,280.455,275.706,282.803,275.706z M311.469,263.039c4.641,0,8.417,3.775,8.417,8.417s-3.775,8.417-8.417,8.417
		c-4.641,0-8.417-3.775-8.417-8.417S306.828,263.039,311.469,263.039z"/>
</g>
<g>
</g>
<g>
</g>
<g>
</g>
<g>
</g>
<g>
</g>
<g>
</g>
<g>
</g>
<g>
</g>
<g>
</g>
<g>
</g>
<g>
</g>
<g>
</g>
<g>
</g>
<g>
</g>
<g>
</g>
</svg>
